<!-- Generated by IcoMoon.io -->
<svg version="1.1" xmlns="http://www.w3.org/2000/svg" width="16" height="16" viewBox="0 0 16 16">
<title>collaboration</title>
<path d="M4 3.5c0 0.828-0.672 1.5-1.5 1.5s-1.5-0.672-1.5-1.5c0-0.828 0.672-1.5 1.5-1.5s1.5 0.672 1.5 1.5z"></path>
<path d="M2.5 5c-1.381 0-2.5 0.448-2.5 1v1h5v-1c0-0.552-1.119-1-2.5-1z"></path>
<path d="M14 3.5c0 0.828-0.672 1.5-1.5 1.5s-1.5-0.672-1.5-1.5c0-0.828 0.672-1.5 1.5-1.5s1.5 0.672 1.5 1.5z"></path>
<path d="M12.5 5c-1.381 0-2.5 0.448-2.5 1v1h5v-1c0-0.552-1.119-1-2.5-1z"></path>
<path d="M9 11.5c0 0.828-0.672 1.5-1.5 1.5s-1.5-0.672-1.5-1.5c0-0.828 0.672-1.5 1.5-1.5s1.5 0.672 1.5 1.5z"></path>
<path d="M7.5 13c-1.381 0-2.5 0.448-2.5 1v1h5v-1c0-0.552-1.119-1-2.5-1z"></path>
<path d="M9.5 4h-4c-0.276 0-0.5-0.224-0.5-0.5s0.224-0.5 0.5-0.5h4c0.276 0 0.5 0.224 0.5 0.5s-0.224 0.5-0.5 0.5z"></path>
<path d="M10.5 12c-0.095 0-0.192-0.027-0.277-0.084-0.23-0.153-0.292-0.464-0.139-0.693l2-3c0.153-0.23 0.464-0.292 0.693-0.139s0.292 0.464 0.139 0.693l-2 3c-0.096 0.145-0.255 0.223-0.416 0.223z"></path>
<path d="M4.5 12c-0.162 0-0.32-0.078-0.417-0.223l-2-3c-0.153-0.23-0.091-0.54 0.139-0.693s0.54-0.091 0.693 0.139l2 3c0.153 0.23 0.091 0.54-0.139 0.693-0.085 0.057-0.182 0.084-0.277 0.084z"></path>
</svg>
