
<svg xmlns="http://www.w3.org/2000/svg" xmlns:xlink="http://www.w3.org/1999/xlink" preserveAspectRatio="xMidYMid" width="20" height="14" viewBox="0 0 20 14">
  <path d="M10.110,7.914 C9.037,7.914 8.021,7.356 7.037,6.644 L0.885,13.996 L0.956,14.000 L19.264,14.000 L19.308,13.998 L13.374,6.645 C12.186,7.487 11.199,7.914 10.110,7.914 ZM15.282,5.120 C14.933,5.420 14.604,5.696 14.291,5.948 L19.907,13.125 C19.967,12.990 20.000,12.841 20.000,12.684 L20.000,9.037 L20.000,0.748 C20.000,0.658 19.988,0.571 19.967,0.487 C19.221,1.171 18.786,1.905 18.049,2.588 C16.804,3.742 15.728,4.738 15.282,5.120 ZM5.776,5.662 L5.368,5.334 C4.805,4.886 2.330,2.578 0.021,0.539 C0.007,0.607 -0.000,0.676 -0.000,0.748 L-0.000,12.684 C-0.000,12.832 0.030,12.973 0.084,13.102 L6.124,5.942 L5.776,5.662 ZM6.497,4.766 C7.717,5.748 8.977,6.764 10.110,6.764 C11.369,6.764 12.588,5.917 14.534,4.248 C14.963,3.880 16.031,2.890 17.269,1.744 C17.990,1.075 18.766,0.701 19.501,0.026 C19.425,0.010 19.346,-0.000 19.264,-0.000 L0.956,-0.000 C0.854,-0.000 0.757,0.014 0.664,0.040 C2.846,1.967 5.546,4.006 6.085,4.435 L6.497,4.766 Z" style="fill:#2ed0a0;fill-rule:evenodd"/>
</svg>
